#!OML:ASF F:\VICON\USERDATA\INSTALL\rory3\rory3.ASF
:FULLY-SPECIFIED
:DEGREES
36
root -0.6431357957637027 16.99113365744559 -5.187432730639186 1.3466155700945097 4.140964826989341 -1.1298392822498275
lfemur -27.097832067477544 -3.353669999285376 -21.653508540248836
ltibia 37.39373448367719
lfoot -5.7892522044839705 -12.416152843526628
ltoes -0.05188206101659709
rfemur -6.42326301712526 -1.9825347624829706 27.022021409231314
rtibia 93.18662724762396
rfoot 18.013079183526816 -18.404984395418666
rtoes 14.081359396066478
lowerback nan 0.15748004168939733 1.9935361815712942
upperback 0.4803068662465233 1.1479118279958749 0.7673122037132627
thorax -9.500305196714839 0.550540453316605 -0.4754428879878665
lowerneck -20.827409711905815 -4.849429821036704 -1.5314060562572234
upperneck 14.136262876678579 -7.414218596417523 3.3135960732977603
head 8.062124912976273 -3.061278404762553 0.7057349085753634
lclavicle 3.1417294342169915e-14 7.280264896566451e-15
lhumerus -55.13855855278545 -13.081436617421227 98.39591894103903
lradius 104.60777290022814
lwrist 32.7072822620365
lhand -25.32914820654868 -0.10009568614077335
lfingers nan
lthumb 1.222368178225669 29.917944827567766
rclavicle 3.191403316652992e-14 7.866948833575734e-15
rhumerus -49.29027647026737 11.184239661287972 -102.91923179617936
rradius 108.43353856105715
rwrist -5.018430029311451
rhand -20.997457738056223 nan
rfingers nan
rthumb 5.310243959361852 9.279544917509947
37
root -0.6573665799016986 16.943326438517367 -4.599164933432604 1.1965917018230616 3.230448300504567 -0.8346474631127496
lfemur -26.594328527749468 -3.0942468438929325 -21.96136237721883
ltibia 40.01188536277082
lfoot -9.330154255523444 -10.273620427949274
ltoes -3.3694605388312437
rfemur -8.64908350396874 -2.1862797241274663 25.782413297971686
rtibia 96.84261022511919
rfoot 17.36085653263062 -17.045433643544712
rtoes 12.788459680326607
lowerback nan 0.3160096453526906 1.6631164045538958
upperback 0.7541155166559996 1.3331610098541213 0.6908240054230663
thorax -9.515646162555699 0.6793637444699584 -0.3950677555271389
lowerneck -21.249241109381124 -4.860873077824002 -1.4107944531402352
upperneck 13.910601636528096 -7.489670598838358 3.370847861476369
head 8.066420780037452 -3.070218014099443 0.7043013482226299
lclavicle 2.4600526080272407e-14 1.4964370846989832e-15
lhumerus -53.082810358784094 -14.335092137805393 98.61334235544565
lradius 104.92444707843602
lwrist 33.51807412622012
lhand -25.343096145518196 -0.17943546888569117
lfingers nan
lthumb 1.2139975282606663 29.841660626094857
rclavicle 2.5257296131940166e-14 2.131778665262398e-15
rhumerus -49.30991568094954 10.69603493733308 -102.7629544726666
rradius 107.07929683369656
rwrist -5.663962569756702
rhand -22.637704075651207 nan
rfingers nan
rthumb 3.791598687994809 8.998928282357054
38
root -0.6667264917918811 16.886310117680736 -3.7762732178937615 1.4087106698892735 3.157911044427447 -0.21635117126277992
lfemur -26.03337282457084 -3.4172333129973222 -22.578661916632992
ltibia 42.067862629752625
lfoot -12.043437273161882 -8.668926815550819
ltoes -0.8376236643554655
rfemur -11.403885760847452 -3.0812899978143777 24.03321775931257
rtibia 99.97003227428121
rfoot 17.1230066862104 -14.789104000723547
rtoes 9.804055614613143
lowerback nan 0.23778881899587978 1.0219692563185547
upperback 0.8931140735055598 1.1661883481950976 0.5018531377316133
thorax -9.471612728455883 0.6222797257191653 -0.12120679326309347
lowerneck -21.83741342167537 -4.843587328421477 -1.1356802870194294
upperneck 13.778547293509408 -7.540053668618141 3.3272756552302996
head 8.090334225718712 -3.0820653855721782 0.6408278248603712
lclavicle -4.315040220327344e-15 2.3284849185939997e-14
lhumerus -50.83252859826364 -15.504911574549824 98.65799616211693
lradius 105.20442827506574
lwrist 34.39861650975202
lhand -25.445985365414373 0.057506236044743586
lfingers nan
lthumb 1.1162661252574266 30.078071169397713
rclavicle -3.73058889118657e-15 2.3917823800967334e-14
rhumerus -49.74187679811988 10.023531375253054 -102.96641126057995
rradius 105.6956300870983
rwrist -1.8750254015713903
rhand -25.676230556311452 nan
rfingers nan
rthumb 0.9380111014246815 7.269645536556252
39
root -0.7072869623998526 16.839826296844283 -3.0914507126242885 2.0216707895385575 3.012134884207577 0.6054288077510162
lfemur -25.290909908348162 -3.525022518290667 -23.58711997131371
ltibia 43.4402327710912
lfoot -14.484506318822303 -7.3453120741080555
ltoes 0.22130671578274352
rfemur -14.871750820554752 -3.917302021022489 22.023480225258915
rtibia 103.24233994259343
rfoot 17.051568225018347 -12.411293462201478
rtoes 10.623205517501887
lowerback nan 0.21103278191267627 -0.4227782833603162
upperback 0.8140945969426008 0.8863399668059979 0.3530932950290224
thorax -9.413811091820538 0.5537008849344333 0.6112295050871598
lowerneck -22.227804684436258 -4.689467682381793 -1.0287254680407432
upperneck 13.71235240247568 -7.442073136458036 3.324285714029225
head 8.124934797132896 -3.01325518544345 0.6211956006281325
lclavicle -1.5531279093997312e-14 1.0050069608485223e-14
lhumerus -48.592570765572084 -16.315777166858034 98.6024721663087
lradius 105.5048512930446
lwrist 35.40741104629399
lhand -24.606583544067718 -0.8678048427242933
lfingers nan
lthumb 1.9225864637672374 29.14624569270968
rclavicle -1.488806922005501e-14 1.0760520084931909e-14
rhumerus -50.12225079612533 9.395961802870938 -102.75137587606002
rradius 104.54615530212433
rwrist -1.3046602985958362
rhand -24.049848935849482 nan
rfingers nan
rthumb 2.660419500451064 7.329238916060662
